<?xml version="1.0" encoding="UTF-8" standalone="no" ?>
<!DOCTYPE svg PUBLIC "-//W3C//DTD SVG 1.1//EN" "http://www.w3.org/Graphics/SVG/1.1/DTD/svg11.dtd">
<svg xmlns="http://www.w3.org/2000/svg" xmlns:xlink="http://www.w3.org/1999/xlink" version="1.1" width="609.2884" height="161.64688" xml:space="preserve">
<desc>Created with Fabric.js 1.6.0-rc.1</desc>
<defs></defs>
<g style="stroke: none; stroke-width: 1; stroke-dasharray: none; stroke-linecap: butt; stroke-linejoin: miter; stroke-miterlimit: 10; fill: none; fill-rule: nonzero; opacity: 1;" transform="translate(10 10.280000000000008) scale(0.24 0.24)" >
  <path d="M 323.344 19.72 c 15.727 -6.488 32.318 -12.088 50.497 -12.088 c 61.467 0 111.296 49.829 111.296 111.296 s -49.829 111.296 -111.296 111.296 c -1.591 0 -3.174 -0.042 -4.749 -0.108 H 131.469 c -1.575 0.066 -3.157 0.108 -4.749 0.108 c -61.467 0 -111.296 -49.829 -111.296 -111.296 c 0 -30.366 12.162 -57.893 31.88 -77.974 c 0 0 22.155 -19.261 34.345 -23.818 c 14.117 -5.278 29.028 -9.504 45.071 -9.504 c 61.467 0 111.296 49.829 111.296 111.296 c 0 20.33 -5.455 39.386 -14.976 55.787 h 54.481 c -9.521 -16.403 -14.976 -35.457 -14.976 -55.787 c 0 -26.376 9.175 -50.609 24.508 -69.682 C 287.053 49.246 306.934 26.49 323.344 19.72 z" style="stroke: none; stroke-width: 1; stroke-dasharray: none; stroke-linecap: butt; stroke-linejoin: miter; stroke-miterlimit: 10; fill: #57545C; fill-rule: nonzero; opacity: 1;" transform=" matrix(1 0 0 1 0 0) " stroke-linecap="round" />
  <path d="M 373.876 7.632 c -7.395 0 -14.523 0.937 -21.442 2.474 c 50.227 10.752 87.889 55.386 87.889 108.822 c 0 59.875 -47.283 108.699 -106.546 111.188 h 35.35 c 1.575 0.066 3.157 0.108 4.749 0.108 c 61.467 0 111.296 -49.829 111.296 -111.296 S 435.343 7.632 373.876 7.632 z" style="stroke: none; stroke-width: 1; stroke-dasharray: none; stroke-linecap: butt; stroke-linejoin: miter; stroke-miterlimit: 10; fill: #2F2D30; fill-rule: nonzero; opacity: 1;" transform=" matrix(1 0 0 1 0 0) " stroke-linecap="round" />
  <rect x="160.68" y="230.12" rx="0" ry="0" width="173.09" height="37.11" style="stroke: none; stroke-width: 1; stroke-dasharray: none; stroke-linecap: butt; stroke-linejoin: miter; stroke-miterlimit: 10; fill: #57545C; fill-rule: nonzero; opacity: 1;" transform=" matrix(1 0 0 1 0 0) "/>
  <path d="M 78.598 280.335 v -4.988 c 0 -5.929 4.759 -10.76 10.688 -10.85 l 117.668 -1.766 h 208.904 v 134.96 l -70.415 32.484 H 100.921 c -12.328 0 -22.324 -9.994 -22.324 -22.324 v -79.175 C 78.598 328.677 78.598 280.335 78.598 280.335 z" style="stroke: none; stroke-width: 1; stroke-dasharray: none; stroke-linecap: butt; stroke-linejoin: miter; stroke-miterlimit: 10; fill: #C6C3CB; fill-rule: nonzero; opacity: 1;" transform=" matrix(1 0 0 1 0 0) " stroke-linecap="round" />
  <path d="M 391.631 262.731 v 110.731 l -70.415 32.484 H 78.598 v 1.904 c 0 12.328 9.994 22.324 22.324 22.324 h 244.523 l 70.415 -32.484 V 262.731 H 391.631 z" style="stroke: none; stroke-width: 1; stroke-dasharray: none; stroke-linecap: butt; stroke-linejoin: miter; stroke-miterlimit: 10; fill: #2F2D30; fill-rule: nonzero; opacity: 1;" transform=" matrix(1 0 0 1 0 0) " stroke-linecap="round" />
  <path d="M 345.444 504.368 H 120.996 v -34.001 c 0 -22.198 17.995 -40.193 40.193 -40.193 h 184.256 v 74.194 H 345.444 z" style="stroke: none; stroke-width: 1; stroke-dasharray: none; stroke-linecap: butt; stroke-linejoin: miter; stroke-miterlimit: 10; fill: #57545C; fill-rule: nonzero; opacity: 1;" transform=" matrix(1 0 0 1 0 0) " stroke-linecap="round" />
  <polygon points="327.04,430.18 327.04,485.96 121,485.96 121,504.37 345.44,504.37 345.44,430.18 " style="stroke: none; stroke-width: 1; stroke-dasharray: none; stroke-linecap: butt; stroke-linejoin: miter; stroke-miterlimit: 10; fill: #494949; fill-rule: nonzero; opacity: 1;" transform="  matrix(1 0 0 1 0 0) "/>
  <path d="M 209.647 463.824 h -42.559 c -4.216 0 -7.632 -3.417 -7.632 -7.632 c 0 -4.215 3.416 -7.632 7.632 -7.632 h 42.559 c 4.216 0 7.632 3.417 7.632 7.632 C 217.279 460.407 213.863 463.824 209.647 463.824 z" style="stroke: none; stroke-width: 1; stroke-dasharray: none; stroke-linecap: butt; stroke-linejoin: miter; stroke-miterlimit: 10; fill: #C6C3CB; fill-rule: nonzero; opacity: 1;" transform=" matrix(1 0 0 1 0 0) " stroke-linecap="round" />
  <path d="M 209.647 485.665 h -42.559 c -4.216 0 -7.632 -3.417 -7.632 -7.632 s 3.416 -7.632 7.632 -7.632 h 42.559 c 4.216 0 7.632 3.417 7.632 7.632 S 213.863 485.665 209.647 485.665 z" style="stroke: none; stroke-width: 1; stroke-dasharray: none; stroke-linecap: butt; stroke-linejoin: miter; stroke-miterlimit: 10; fill: #C6C3CB; fill-rule: nonzero; opacity: 1;" transform=" matrix(1 0 0 1 0 0) " stroke-linecap="round" />
  <circle cx="370.78799999999995" cy="118.928" r="37.008" style="stroke: none; stroke-width: 1; stroke-dasharray: none; stroke-linecap: butt; stroke-linejoin: miter; stroke-miterlimit: 10; fill: #C6C3CB; fill-rule: nonzero; opacity: 1;" transform="  matrix(1 0 0 1 0 0) "/>
  <circle cx="123.65800000000002" cy="118.928" r="37.008" style="stroke: none; stroke-width: 1; stroke-dasharray: none; stroke-linecap: butt; stroke-linejoin: miter; stroke-miterlimit: 10; fill: #C6C3CB; fill-rule: nonzero; opacity: 1;" transform="  matrix(1 0 0 1 0 0) "/>
  <polygon points="499.63,397.64 447.98,368.73 447.98,291.64 499.63,262.73 " style="stroke: none; stroke-width: 1; stroke-dasharray: none; stroke-linecap: butt; stroke-linejoin: miter; stroke-miterlimit: 10; fill: #C6C3CB; fill-rule: nonzero; opacity: 1;" transform="  matrix(1 0 0 1 0 0) "/>
  <path d="M 431.919 393.139 L 431.919 393.139 c -8.833 0 -16.06 -7.227 -16.06 -16.06 v -93.79 c 0 -8.833 7.227 -16.06 16.06 -16.06 l 0 0 c 8.833 0 16.06 7.227 16.06 16.06 v 93.79 C 447.979 385.912 440.752 393.139 431.919 393.139 z" style="stroke: none; stroke-width: 1; stroke-dasharray: none; stroke-linecap: butt; stroke-linejoin: miter; stroke-miterlimit: 10; fill: #57545C; fill-rule: nonzero; opacity: 1;" transform=" matrix(1 0 0 1 0 0) " stroke-linecap="round" />
  <path d="M 447.979 353.742 c 0 8.833 -7.227 16.06 -16.06 16.06 c -8.833 0 -16.06 -7.227 -16.06 -16.06 v 23.337 c 0 8.833 7.228 16.06 16.06 16.06 c 8.833 0 16.06 -7.227 16.06 -16.06 v -8.351 l 51.653 28.908 v -23.337 l -51.653 -28.908 V 353.742 z" style="stroke: none; stroke-width: 1; stroke-dasharray: none; stroke-linecap: butt; stroke-linejoin: miter; stroke-miterlimit: 10; fill: #2F2D30; fill-rule: nonzero; opacity: 1;" transform=" matrix(1 0 0 1 0 0) " stroke-linecap="round" />
  <polygon points="131.11,319.89 131.11,302.66 235.99,302.66 235.99,387.52 131.11,387.52 131.11,363.21 " style="stroke: none; stroke-width: 1; stroke-dasharray: none; stroke-linecap: butt; stroke-linejoin: miter; stroke-miterlimit: 10; fill: #3C66B1; fill-rule: nonzero; opacity: 1;" transform="  matrix(1 0 0 1 0 0) "/>
  <circle cx="274.209" cy="340.559" r="14.509" style="stroke: none; stroke-width: 1; stroke-dasharray: none; stroke-linecap: butt; stroke-linejoin: miter; stroke-miterlimit: 10; fill: #3C66B1; fill-rule: nonzero; opacity: 1;" transform="  matrix(1 0 0 1 0 0) "/>
  <circle cx="323.199" cy="340.559" r="14.509" style="stroke: none; stroke-width: 1; stroke-dasharray: none; stroke-linecap: butt; stroke-linejoin: miter; stroke-miterlimit: 10; fill: #3C66B1; fill-rule: nonzero; opacity: 1;" transform="  matrix(1 0 0 1 0 0) "/>
  <circle cx="372.199" cy="340.559" r="14.509" style="stroke: none; stroke-width: 1; stroke-dasharray: none; stroke-linecap: butt; stroke-linejoin: miter; stroke-miterlimit: 10; fill: #3C66B1; fill-rule: nonzero; opacity: 1;" transform="  matrix(1 0 0 1 0 0) "/>
  <rect x="160.68" y="230.12" rx="0" ry="0" width="173.09" height="18.56" style="stroke: none; stroke-width: 1; stroke-dasharray: none; stroke-linecap: butt; stroke-linejoin: miter; stroke-miterlimit: 10; fill: #2F2D30; fill-rule: nonzero; opacity: 1;" transform=" matrix(1 0 0 1 0 0) "/>
  <path d="M 126.754 230.224 c 61.467 0 111.296 -49.829 111.296 -111.296 S 188.221 7.632 126.754 7.632 c -7.395 0 -14.523 0.937 -21.442 2.474 c 50.227 10.752 87.889 55.386 87.889 108.822 c 0 53.795 -38.171 98.661 -88.904 109.026 c 3.966 0.789 9.837 1.731 16.794 2.162 h 0.914 C 123.58 230.182 125.162 230.224 126.754 230.224 z" style="stroke: none; stroke-width: 1; stroke-dasharray: none; stroke-linecap: butt; stroke-linejoin: miter; stroke-miterlimit: 10; fill: #2F2D30; fill-rule: nonzero; opacity: 1;" transform=" matrix(1 0 0 1 0 0) " stroke-linecap="round" />
  <path d="M 167.088 463.824 h 42.559 c 4.216 0 7.632 -3.417 7.632 -7.632 c 0 -4.215 -3.416 -7.632 -7.632 -7.632 h -42.559 c -4.216 0 -7.632 3.417 -7.632 7.632 C 159.456 460.407 162.873 463.824 167.088 463.824 z" style="stroke: none; stroke-width: 1; stroke-dasharray: none; stroke-linecap: butt; stroke-linejoin: miter; stroke-miterlimit: 10; fill: rgb(0,0,0); fill-rule: nonzero; opacity: 1;" transform=" matrix(1 0 0 1 0 0) " stroke-linecap="round" />
  <path d="M 370.789 163.572 c 24.616 0 44.644 -20.027 44.644 -44.644 s -20.028 -44.644 -44.644 -44.644 s -44.644 20.027 -44.644 44.644 S 346.172 163.572 370.789 163.572 z M 370.789 89.546 c 16.201 0 29.381 13.18 29.381 29.381 s -13.18 29.381 -29.381 29.381 s -29.381 -13.18 -29.381 -29.381 S 354.588 89.546 370.789 89.546 z" style="stroke: none; stroke-width: 1; stroke-dasharray: none; stroke-linecap: butt; stroke-linejoin: miter; stroke-miterlimit: 10; fill: rgb(0,0,0); fill-rule: nonzero; opacity: 1;" transform=" matrix(1 0 0 1 0 0) " stroke-linecap="round" />
  <path d="M 79.023 118.928 c 0 24.617 20.028 44.644 44.644 44.644 s 44.644 -20.027 44.644 -44.644 s -20.028 -44.644 -44.644 -44.644 S 79.023 94.31 79.023 118.928 z M 153.049 118.928 c 0 16.201 -13.18 29.381 -29.381 29.381 s -29.381 -13.18 -29.381 -29.381 s 13.18 -29.381 29.381 -29.381 S 153.049 102.726 153.049 118.928 z" style="stroke: none; stroke-width: 1; stroke-dasharray: none; stroke-linecap: butt; stroke-linejoin: miter; stroke-miterlimit: 10; fill: rgb(0,0,0); fill-rule: nonzero; opacity: 1;" transform=" matrix(1 0 0 1 0 0) " stroke-linecap="round" />
  <path d="M 503.491 256.148 c -2.335 -1.37 -5.224 -1.398 -7.587 -0.076 l -40.716 22.787 c -2.081 -10.953 -11.72 -19.262 -23.27 -19.262 c -3.026 0 -5.918 0.576 -8.581 1.615 c -0.704 -3.486 -3.784 -6.111 -7.479 -6.111 h -74.451 v -17.352 h 24.474 c 1.76 0.072 3.368 0.108 4.908 0.108 c 65.576 0 118.928 -53.35 118.928 -118.928 S 436.365 0 370.789 0 c -18.997 0 -37.154 4.347 -53.965 12.922 c -3.755 1.915 -5.246 6.511 -3.331 10.266 c 1.916 3.755 6.513 5.245 10.266 3.33 c 14.643 -7.468 30.466 -11.255 47.031 -11.255 c 57.161 0 103.665 46.503 103.665 103.665 S 427.95 222.592 370.789 222.592 c -1.371 0 -2.82 -0.033 -4.427 -0.101 c -0.107 -0.004 -0.215 -0.007 -0.322 -0.007 h -32.264 H 160.68 h -32.264 c -0.107 0 -0.215 0.002 -0.322 0.007 c -1.609 0.068 -3.058 0.101 -4.428 0.101 c -57.161 0 -103.665 -46.503 -103.665 -103.665 c 0 -27.334 10.546 -53.127 29.695 -72.627 c 2.953 -3.008 2.908 -7.839 -0.099 -10.792 c -3.005 -2.951 -7.837 -2.909 -10.792 0.099 C 16.837 57.978 4.739 87.569 4.739 118.928 c 0 65.577 53.351 118.928 118.928 118.928 c 1.541 0 3.147 -0.036 4.909 -0.108 h 24.474 v 18.161 l -74.566 1.119 c -4.17 0.063 -7.518 3.461 -7.518 7.63 v 15.677 c 0 4.215 3.416 7.632 7.632 7.632 s 7.632 -3.417 7.632 -7.632 v -8.16 l 120.784 -1.813 h 126.764 h 74.451 v 12.926 v 93.79 v 15.728 l -64.459 29.736 h -182.58 h -60.267 c -8.102 0 -14.692 -6.591 -14.692 -14.691 v -79.175 c 0 -4.215 -3.416 -7.632 -7.632 -7.632 s -7.632 3.417 -7.632 7.632 v 79.175 c 0 16.517 13.438 29.954 29.955 29.954 h 25.284 c -7.958 8.544 -12.841 19.991 -12.841 32.561 v 34.002 c 0 4.215 3.416 7.632 7.632 7.632 h 224.448 c 4.216 0 7.632 -3.417 7.632 -7.632 v -69.312 l 65.98 -30.438 c 2.251 -1.038 3.811 -3.092 4.276 -5.467 c 2.664 1.04 5.559 1.618 8.587 1.618 c 11.55 0 21.189 -8.309 23.27 -19.262 l 40.716 22.787 c 1.159 0.648 2.443 0.972 3.727 0.972 c 1.335 0 2.669 -0.35 3.859 -1.048 c 2.337 -1.37 3.772 -3.876 3.772 -6.583 V 262.731 C 507.263 260.023 505.829 257.517 503.491 256.148 z M 206.954 255.099 h -38.642 v -17.352 h 157.832 v 17.352 L 206.954 255.099 L 206.954 255.099 z M 337.813 496.737 H 128.628 v -26.37 c 0 -17.954 14.607 -32.561 32.561 -32.561 h 176.624 V 496.737 z M 440.347 377.079 c 0 4.647 -3.781 8.428 -8.428 8.428 c -4.647 0 -8.428 -3.781 -8.428 -8.428 v -93.79 c 0 -4.647 3.781 -8.428 8.428 -8.428 c 4.647 0 8.428 3.781 8.428 8.428 v 8.351 v 77.089 V 377.079 z M 492 384.62 l -36.39 -20.367 v -68.139 L 492 275.747 V 384.62 z" style="stroke: none; stroke-width: 1; stroke-dasharray: none; stroke-linecap: butt; stroke-linejoin: miter; stroke-miterlimit: 10; fill: rgb(0,0,0); fill-rule: nonzero; opacity: 1;" transform=" matrix(1 0 0 1 0 0) " stroke-linecap="round" />
  <path d="M 131.113 355.578 c -4.216 0 -7.632 3.417 -7.632 7.632 v 24.312 c 0 4.215 3.416 7.632 7.632 7.632 h 104.873 c 4.216 0 7.632 -3.417 7.632 -7.632 v -84.863 c 0 -4.215 -3.416 -7.632 -7.632 -7.632 H 131.113 c -4.216 0 -7.632 3.417 -7.632 7.632 v 17.229 c 0 4.215 3.416 7.632 7.632 7.632 c 4.216 0 7.632 -3.417 7.632 -7.632 v -9.597 h 89.61 v 69.599 h -89.61 v -16.68 C 138.744 358.995 135.327 355.578 131.113 355.578 z" style="stroke: none; stroke-width: 1; stroke-dasharray: none; stroke-linecap: butt; stroke-linejoin: miter; stroke-miterlimit: 10; fill: rgb(0,0,0); fill-rule: nonzero; opacity: 1;" transform=" matrix(1 0 0 1 0 0) " stroke-linecap="round" />
  <path d="M 296.348 340.559 c 0 -12.208 -9.933 -22.141 -22.142 -22.141 c -12.208 0 -22.141 9.932 -22.141 22.141 c 0 12.208 9.932 22.141 22.141 22.141 C 286.415 362.7 296.348 352.768 296.348 340.559 z M 267.329 340.559 c 0 -3.792 3.085 -6.878 6.878 -6.878 c 3.793 0 6.879 3.085 6.879 6.878 c 0 3.792 -3.085 6.878 -6.879 6.878 C 270.414 347.438 267.329 344.352 267.329 340.559 z" style="stroke: none; stroke-width: 1; stroke-dasharray: none; stroke-linecap: butt; stroke-linejoin: miter; stroke-miterlimit: 10; fill: rgb(0,0,0); fill-rule: nonzero; opacity: 1;" transform=" matrix(1 0 0 1 0 0) " stroke-linecap="round" />
  <path d="M 345.342 340.559 c 0 -12.208 -9.933 -22.141 -22.142 -22.141 c -12.208 0 -22.141 9.932 -22.141 22.141 c 0 12.208 9.932 22.141 22.141 22.141 C 335.409 362.7 345.342 352.768 345.342 340.559 z M 316.323 340.559 c 0 -3.792 3.085 -6.878 6.878 -6.878 c 3.793 0 6.879 3.085 6.879 6.878 c 0 3.792 -3.085 6.878 -6.879 6.878 C 319.409 347.438 316.323 344.352 316.323 340.559 z" style="stroke: none; stroke-width: 1; stroke-dasharray: none; stroke-linecap: butt; stroke-linejoin: miter; stroke-miterlimit: 10; fill: rgb(0,0,0); fill-rule: nonzero; opacity: 1;" transform=" matrix(1 0 0 1 0 0) " stroke-linecap="round" />
  <path d="M 394.335 340.559 c 0 -12.208 -9.932 -22.141 -22.141 -22.141 c -12.208 0 -22.142 9.932 -22.142 22.141 c 0 12.208 9.933 22.141 22.142 22.141 C 384.403 362.7 394.335 352.768 394.335 340.559 z M 365.317 340.559 c 0 -3.792 3.085 -6.878 6.879 -6.878 c 3.792 0 6.878 3.085 6.878 6.878 c 0 3.792 -3.085 6.878 -6.878 6.878 C 368.402 347.438 365.317 344.352 365.317 340.559 z" style="stroke: none; stroke-width: 1; stroke-dasharray: none; stroke-linecap: butt; stroke-linejoin: miter; stroke-miterlimit: 10; fill: rgb(0,0,0); fill-rule: nonzero; opacity: 1;" transform=" matrix(1 0 0 1 0 0) " stroke-linecap="round" />
  <path d="M 81.69 24.112 c 13.241 -5.871 27.365 -8.848 41.976 -8.848 c 57.161 0 103.666 46.503 103.666 103.665 c 0 18.273 -4.822 36.24 -13.944 51.956 c -1.371 2.361 -1.376 5.274 -0.014 7.64 c 1.362 2.366 3.884 3.823 6.614 3.823 h 54.48 c 2.73 0 5.252 -1.458 6.613 -3.823 c 1.362 -2.366 1.357 -5.279 -0.013 -7.64 c -9.122 -15.717 -13.944 -33.684 -13.944 -51.956 c 0 -23.884 7.893 -46.325 22.825 -64.899 c 2.641 -3.286 2.118 -8.088 -1.166 -10.729 c -3.286 -2.642 -8.089 -2.119 -10.73 1.166 c -16.89 21.01 -26.191 47.455 -26.191 74.463 c 0 16.642 3.489 33.065 10.167 48.156 h -29.6 c 6.678 -15.091 10.167 -31.514 10.167 -48.156 C 242.595 53.35 189.245 0 123.666 0 c -16.756 0 -32.961 3.418 -48.164 10.159 c -3.853 1.708 -5.591 6.216 -3.883 10.07 C 73.328 24.082 77.833 25.821 81.69 24.112 z" style="stroke: none; stroke-width: 1; stroke-dasharray: none; stroke-linecap: butt; stroke-linejoin: miter; stroke-miterlimit: 10; fill: rgb(0,0,0); fill-rule: nonzero; opacity: 1;" transform=" matrix(1 0 0 1 0 0) " stroke-linecap="round" />
  <path d="M 209.647 470.402 h -42.559 c -4.216 0 -7.632 3.417 -7.632 7.632 s 3.416 7.632 7.632 7.632 h 42.559 c 4.216 0 7.632 -3.417 7.632 -7.632 S 213.863 470.402 209.647 470.402 z" style="stroke: none; stroke-width: 1; stroke-dasharray: none; stroke-linecap: butt; stroke-linejoin: miter; stroke-miterlimit: 10; fill: rgb(0,0,0); fill-rule: nonzero; opacity: 1;" transform=" matrix(1 0 0 1 0 0) " stroke-linecap="round" />
</g>
<g style="stroke: none; stroke-width: 1; stroke-dasharray: none; stroke-linecap: butt; stroke-linejoin: miter; stroke-miterlimit: 10; fill: none; fill-rule: nonzero; opacity: 1;" transform="translate(26 19.28000000000001) scale(0.24 0.24)" >
  <path d="M 323.344 19.72 c 15.727 -6.488 32.318 -12.088 50.497 -12.088 c 61.467 0 111.296 49.829 111.296 111.296 s -49.829 111.296 -111.296 111.296 c -1.591 0 -3.174 -0.042 -4.749 -0.108 H 131.469 c -1.575 0.066 -3.157 0.108 -4.749 0.108 c -61.467 0 -111.296 -49.829 -111.296 -111.296 c 0 -30.366 12.162 -57.893 31.88 -77.974 c 0 0 22.155 -19.261 34.345 -23.818 c 14.117 -5.278 29.028 -9.504 45.071 -9.504 c 61.467 0 111.296 49.829 111.296 111.296 c 0 20.33 -5.455 39.386 -14.976 55.787 h 54.481 c -9.521 -16.403 -14.976 -35.457 -14.976 -55.787 c 0 -26.376 9.175 -50.609 24.508 -69.682 C 287.053 49.246 306.934 26.49 323.344 19.72 z" style="stroke: none; stroke-width: 1; stroke-dasharray: none; stroke-linecap: butt; stroke-linejoin: miter; stroke-miterlimit: 10; fill: #57545C; fill-rule: nonzero; opacity: 1;" transform=" matrix(1 0 0 1 0 0) " stroke-linecap="round" />
  <path d="M 373.876 7.632 c -7.395 0 -14.523 0.937 -21.442 2.474 c 50.227 10.752 87.889 55.386 87.889 108.822 c 0 59.875 -47.283 108.699 -106.546 111.188 h 35.35 c 1.575 0.066 3.157 0.108 4.749 0.108 c 61.467 0 111.296 -49.829 111.296 -111.296 S 435.343 7.632 373.876 7.632 z" style="stroke: none; stroke-width: 1; stroke-dasharray: none; stroke-linecap: butt; stroke-linejoin: miter; stroke-miterlimit: 10; fill: #2F2D30; fill-rule: nonzero; opacity: 1;" transform=" matrix(1 0 0 1 0 0) " stroke-linecap="round" />
  <rect x="160.68" y="230.12" rx="0" ry="0" width="173.09" height="37.11" style="stroke: none; stroke-width: 1; stroke-dasharray: none; stroke-linecap: butt; stroke-linejoin: miter; stroke-miterlimit: 10; fill: #57545C; fill-rule: nonzero; opacity: 1;" transform=" matrix(1 0 0 1 0 0) "/>
  <path d="M 78.598 280.335 v -4.988 c 0 -5.929 4.759 -10.76 10.688 -10.85 l 117.668 -1.766 h 208.904 v 134.96 l -70.415 32.484 H 100.921 c -12.328 0 -22.324 -9.994 -22.324 -22.324 v -79.175 C 78.598 328.677 78.598 280.335 78.598 280.335 z" style="stroke: none; stroke-width: 1; stroke-dasharray: none; stroke-linecap: butt; stroke-linejoin: miter; stroke-miterlimit: 10; fill: #C6C3CB; fill-rule: nonzero; opacity: 1;" transform=" matrix(1 0 0 1 0 0) " stroke-linecap="round" />
  <path d="M 391.631 262.731 v 110.731 l -70.415 32.484 H 78.598 v 1.904 c 0 12.328 9.994 22.324 22.324 22.324 h 244.523 l 70.415 -32.484 V 262.731 H 391.631 z" style="stroke: none; stroke-width: 1; stroke-dasharray: none; stroke-linecap: butt; stroke-linejoin: miter; stroke-miterlimit: 10; fill: #2F2D30; fill-rule: nonzero; opacity: 1;" transform=" matrix(1 0 0 1 0 0) " stroke-linecap="round" />
  <path d="M 345.444 504.368 H 120.996 v -34.001 c 0 -22.198 17.995 -40.193 40.193 -40.193 h 184.256 v 74.194 H 345.444 z" style="stroke: none; stroke-width: 1; stroke-dasharray: none; stroke-linecap: butt; stroke-linejoin: miter; stroke-miterlimit: 10; fill: #57545C; fill-rule: nonzero; opacity: 1;" transform=" matrix(1 0 0 1 0 0) " stroke-linecap="round" />
  <polygon points="327.04,430.18 327.04,485.96 121,485.96 121,504.37 345.44,504.37 345.44,430.18 " style="stroke: none; stroke-width: 1; stroke-dasharray: none; stroke-linecap: butt; stroke-linejoin: miter; stroke-miterlimit: 10; fill: #494949; fill-rule: nonzero; opacity: 1;" transform="  matrix(1 0 0 1 0 0) "/>
  <path d="M 209.647 463.824 h -42.559 c -4.216 0 -7.632 -3.417 -7.632 -7.632 c 0 -4.215 3.416 -7.632 7.632 -7.632 h 42.559 c 4.216 0 7.632 3.417 7.632 7.632 C 217.279 460.407 213.863 463.824 209.647 463.824 z" style="stroke: none; stroke-width: 1; stroke-dasharray: none; stroke-linecap: butt; stroke-linejoin: miter; stroke-miterlimit: 10; fill: #C6C3CB; fill-rule: nonzero; opacity: 1;" transform=" matrix(1 0 0 1 0 0) " stroke-linecap="round" />
  <path d="M 209.647 485.665 h -42.559 c -4.216 0 -7.632 -3.417 -7.632 -7.632 s 3.416 -7.632 7.632 -7.632 h 42.559 c 4.216 0 7.632 3.417 7.632 7.632 S 213.863 485.665 209.647 485.665 z" style="stroke: none; stroke-width: 1; stroke-dasharray: none; stroke-linecap: butt; stroke-linejoin: miter; stroke-miterlimit: 10; fill: #C6C3CB; fill-rule: nonzero; opacity: 1;" transform=" matrix(1 0 0 1 0 0) " stroke-linecap="round" />
  <circle cx="370.78799999999995" cy="118.928" r="37.008" style="stroke: none; stroke-width: 1; stroke-dasharray: none; stroke-linecap: butt; stroke-linejoin: miter; stroke-miterlimit: 10; fill: #C6C3CB; fill-rule: nonzero; opacity: 1;" transform="  matrix(1 0 0 1 0 0) "/>
  <circle cx="123.65800000000002" cy="118.928" r="37.008" style="stroke: none; stroke-width: 1; stroke-dasharray: none; stroke-linecap: butt; stroke-linejoin: miter; stroke-miterlimit: 10; fill: #C6C3CB; fill-rule: nonzero; opacity: 1;" transform="  matrix(1 0 0 1 0 0) "/>
  <polygon points="499.63,397.64 447.98,368.73 447.98,291.64 499.63,262.73 " style="stroke: none; stroke-width: 1; stroke-dasharray: none; stroke-linecap: butt; stroke-linejoin: miter; stroke-miterlimit: 10; fill: #C6C3CB; fill-rule: nonzero; opacity: 1;" transform="  matrix(1 0 0 1 0 0) "/>
  <path d="M 431.919 393.139 L 431.919 393.139 c -8.833 0 -16.06 -7.227 -16.06 -16.06 v -93.79 c 0 -8.833 7.227 -16.06 16.06 -16.06 l 0 0 c 8.833 0 16.06 7.227 16.06 16.06 v 93.79 C 447.979 385.912 440.752 393.139 431.919 393.139 z" style="stroke: none; stroke-width: 1; stroke-dasharray: none; stroke-linecap: butt; stroke-linejoin: miter; stroke-miterlimit: 10; fill: #57545C; fill-rule: nonzero; opacity: 1;" transform=" matrix(1 0 0 1 0 0) " stroke-linecap="round" />
  <path d="M 447.979 353.742 c 0 8.833 -7.227 16.06 -16.06 16.06 c -8.833 0 -16.06 -7.227 -16.06 -16.06 v 23.337 c 0 8.833 7.228 16.06 16.06 16.06 c 8.833 0 16.06 -7.227 16.06 -16.06 v -8.351 l 51.653 28.908 v -23.337 l -51.653 -28.908 V 353.742 z" style="stroke: none; stroke-width: 1; stroke-dasharray: none; stroke-linecap: butt; stroke-linejoin: miter; stroke-miterlimit: 10; fill: #2F2D30; fill-rule: nonzero; opacity: 1;" transform=" matrix(1 0 0 1 0 0) " stroke-linecap="round" />
  <polygon points="131.11,319.89 131.11,302.66 235.99,302.66 235.99,387.52 131.11,387.52 131.11,363.21 " style="stroke: none; stroke-width: 1; stroke-dasharray: none; stroke-linecap: butt; stroke-linejoin: miter; stroke-miterlimit: 10; fill: #3C66B1; fill-rule: nonzero; opacity: 1;" transform="  matrix(1 0 0 1 0 0) "/>
  <circle cx="274.209" cy="340.559" r="14.509" style="stroke: none; stroke-width: 1; stroke-dasharray: none; stroke-linecap: butt; stroke-linejoin: miter; stroke-miterlimit: 10; fill: #3C66B1; fill-rule: nonzero; opacity: 1;" transform="  matrix(1 0 0 1 0 0) "/>
  <circle cx="323.199" cy="340.559" r="14.509" style="stroke: none; stroke-width: 1; stroke-dasharray: none; stroke-linecap: butt; stroke-linejoin: miter; stroke-miterlimit: 10; fill: #3C66B1; fill-rule: nonzero; opacity: 1;" transform="  matrix(1 0 0 1 0 0) "/>
  <circle cx="372.199" cy="340.559" r="14.509" style="stroke: none; stroke-width: 1; stroke-dasharray: none; stroke-linecap: butt; stroke-linejoin: miter; stroke-miterlimit: 10; fill: #3C66B1; fill-rule: nonzero; opacity: 1;" transform="  matrix(1 0 0 1 0 0) "/>
  <rect x="160.68" y="230.12" rx="0" ry="0" width="173.09" height="18.56" style="stroke: none; stroke-width: 1; stroke-dasharray: none; stroke-linecap: butt; stroke-linejoin: miter; stroke-miterlimit: 10; fill: #2F2D30; fill-rule: nonzero; opacity: 1;" transform=" matrix(1 0 0 1 0 0) "/>
  <path d="M 126.754 230.224 c 61.467 0 111.296 -49.829 111.296 -111.296 S 188.221 7.632 126.754 7.632 c -7.395 0 -14.523 0.937 -21.442 2.474 c 50.227 10.752 87.889 55.386 87.889 108.822 c 0 53.795 -38.171 98.661 -88.904 109.026 c 3.966 0.789 9.837 1.731 16.794 2.162 h 0.914 C 123.58 230.182 125.162 230.224 126.754 230.224 z" style="stroke: none; stroke-width: 1; stroke-dasharray: none; stroke-linecap: butt; stroke-linejoin: miter; stroke-miterlimit: 10; fill: #2F2D30; fill-rule: nonzero; opacity: 1;" transform=" matrix(1 0 0 1 0 0) " stroke-linecap="round" />
  <path d="M 167.088 463.824 h 42.559 c 4.216 0 7.632 -3.417 7.632 -7.632 c 0 -4.215 -3.416 -7.632 -7.632 -7.632 h -42.559 c -4.216 0 -7.632 3.417 -7.632 7.632 C 159.456 460.407 162.873 463.824 167.088 463.824 z" style="stroke: none; stroke-width: 1; stroke-dasharray: none; stroke-linecap: butt; stroke-linejoin: miter; stroke-miterlimit: 10; fill: rgb(0,0,0); fill-rule: nonzero; opacity: 1;" transform=" matrix(1 0 0 1 0 0) " stroke-linecap="round" />
  <path d="M 370.789 163.572 c 24.616 0 44.644 -20.027 44.644 -44.644 s -20.028 -44.644 -44.644 -44.644 s -44.644 20.027 -44.644 44.644 S 346.172 163.572 370.789 163.572 z M 370.789 89.546 c 16.201 0 29.381 13.18 29.381 29.381 s -13.18 29.381 -29.381 29.381 s -29.381 -13.18 -29.381 -29.381 S 354.588 89.546 370.789 89.546 z" style="stroke: none; stroke-width: 1; stroke-dasharray: none; stroke-linecap: butt; stroke-linejoin: miter; stroke-miterlimit: 10; fill: rgb(0,0,0); fill-rule: nonzero; opacity: 1;" transform=" matrix(1 0 0 1 0 0) " stroke-linecap="round" />
  <path d="M 79.023 118.928 c 0 24.617 20.028 44.644 44.644 44.644 s 44.644 -20.027 44.644 -44.644 s -20.028 -44.644 -44.644 -44.644 S 79.023 94.31 79.023 118.928 z M 153.049 118.928 c 0 16.201 -13.18 29.381 -29.381 29.381 s -29.381 -13.18 -29.381 -29.381 s 13.18 -29.381 29.381 -29.381 S 153.049 102.726 153.049 118.928 z" style="stroke: none; stroke-width: 1; stroke-dasharray: none; stroke-linecap: butt; stroke-linejoin: miter; stroke-miterlimit: 10; fill: rgb(0,0,0); fill-rule: nonzero; opacity: 1;" transform=" matrix(1 0 0 1 0 0) " stroke-linecap="round" />
  <path d="M 503.491 256.148 c -2.335 -1.37 -5.224 -1.398 -7.587 -0.076 l -40.716 22.787 c -2.081 -10.953 -11.72 -19.262 -23.27 -19.262 c -3.026 0 -5.918 0.576 -8.581 1.615 c -0.704 -3.486 -3.784 -6.111 -7.479 -6.111 h -74.451 v -17.352 h 24.474 c 1.76 0.072 3.368 0.108 4.908 0.108 c 65.576 0 118.928 -53.35 118.928 -118.928 S 436.365 0 370.789 0 c -18.997 0 -37.154 4.347 -53.965 12.922 c -3.755 1.915 -5.246 6.511 -3.331 10.266 c 1.916 3.755 6.513 5.245 10.266 3.33 c 14.643 -7.468 30.466 -11.255 47.031 -11.255 c 57.161 0 103.665 46.503 103.665 103.665 S 427.95 222.592 370.789 222.592 c -1.371 0 -2.82 -0.033 -4.427 -0.101 c -0.107 -0.004 -0.215 -0.007 -0.322 -0.007 h -32.264 H 160.68 h -32.264 c -0.107 0 -0.215 0.002 -0.322 0.007 c -1.609 0.068 -3.058 0.101 -4.428 0.101 c -57.161 0 -103.665 -46.503 -103.665 -103.665 c 0 -27.334 10.546 -53.127 29.695 -72.627 c 2.953 -3.008 2.908 -7.839 -0.099 -10.792 c -3.005 -2.951 -7.837 -2.909 -10.792 0.099 C 16.837 57.978 4.739 87.569 4.739 118.928 c 0 65.577 53.351 118.928 118.928 118.928 c 1.541 0 3.147 -0.036 4.909 -0.108 h 24.474 v 18.161 l -74.566 1.119 c -4.17 0.063 -7.518 3.461 -7.518 7.63 v 15.677 c 0 4.215 3.416 7.632 7.632 7.632 s 7.632 -3.417 7.632 -7.632 v -8.16 l 120.784 -1.813 h 126.764 h 74.451 v 12.926 v 93.79 v 15.728 l -64.459 29.736 h -182.58 h -60.267 c -8.102 0 -14.692 -6.591 -14.692 -14.691 v -79.175 c 0 -4.215 -3.416 -7.632 -7.632 -7.632 s -7.632 3.417 -7.632 7.632 v 79.175 c 0 16.517 13.438 29.954 29.955 29.954 h 25.284 c -7.958 8.544 -12.841 19.991 -12.841 32.561 v 34.002 c 0 4.215 3.416 7.632 7.632 7.632 h 224.448 c 4.216 0 7.632 -3.417 7.632 -7.632 v -69.312 l 65.98 -30.438 c 2.251 -1.038 3.811 -3.092 4.276 -5.467 c 2.664 1.04 5.559 1.618 8.587 1.618 c 11.55 0 21.189 -8.309 23.27 -19.262 l 40.716 22.787 c 1.159 0.648 2.443 0.972 3.727 0.972 c 1.335 0 2.669 -0.35 3.859 -1.048 c 2.337 -1.37 3.772 -3.876 3.772 -6.583 V 262.731 C 507.263 260.023 505.829 257.517 503.491 256.148 z M 206.954 255.099 h -38.642 v -17.352 h 157.832 v 17.352 L 206.954 255.099 L 206.954 255.099 z M 337.813 496.737 H 128.628 v -26.37 c 0 -17.954 14.607 -32.561 32.561 -32.561 h 176.624 V 496.737 z M 440.347 377.079 c 0 4.647 -3.781 8.428 -8.428 8.428 c -4.647 0 -8.428 -3.781 -8.428 -8.428 v -93.79 c 0 -4.647 3.781 -8.428 8.428 -8.428 c 4.647 0 8.428 3.781 8.428 8.428 v 8.351 v 77.089 V 377.079 z M 492 384.62 l -36.39 -20.367 v -68.139 L 492 275.747 V 384.62 z" style="stroke: none; stroke-width: 1; stroke-dasharray: none; stroke-linecap: butt; stroke-linejoin: miter; stroke-miterlimit: 10; fill: rgb(0,0,0); fill-rule: nonzero; opacity: 1;" transform=" matrix(1 0 0 1 0 0) " stroke-linecap="round" />
  <path d="M 131.113 355.578 c -4.216 0 -7.632 3.417 -7.632 7.632 v 24.312 c 0 4.215 3.416 7.632 7.632 7.632 h 104.873 c 4.216 0 7.632 -3.417 7.632 -7.632 v -84.863 c 0 -4.215 -3.416 -7.632 -7.632 -7.632 H 131.113 c -4.216 0 -7.632 3.417 -7.632 7.632 v 17.229 c 0 4.215 3.416 7.632 7.632 7.632 c 4.216 0 7.632 -3.417 7.632 -7.632 v -9.597 h 89.61 v 69.599 h -89.61 v -16.68 C 138.744 358.995 135.327 355.578 131.113 355.578 z" style="stroke: none; stroke-width: 1; stroke-dasharray: none; stroke-linecap: butt; stroke-linejoin: miter; stroke-miterlimit: 10; fill: rgb(0,0,0); fill-rule: nonzero; opacity: 1;" transform=" matrix(1 0 0 1 0 0) " stroke-linecap="round" />
  <path d="M 296.348 340.559 c 0 -12.208 -9.933 -22.141 -22.142 -22.141 c -12.208 0 -22.141 9.932 -22.141 22.141 c 0 12.208 9.932 22.141 22.141 22.141 C 286.415 362.7 296.348 352.768 296.348 340.559 z M 267.329 340.559 c 0 -3.792 3.085 -6.878 6.878 -6.878 c 3.793 0 6.879 3.085 6.879 6.878 c 0 3.792 -3.085 6.878 -6.879 6.878 C 270.414 347.438 267.329 344.352 267.329 340.559 z" style="stroke: none; stroke-width: 1; stroke-dasharray: none; stroke-linecap: butt; stroke-linejoin: miter; stroke-miterlimit: 10; fill: rgb(0,0,0); fill-rule: nonzero; opacity: 1;" transform=" matrix(1 0 0 1 0 0) " stroke-linecap="round" />
  <path d="M 345.342 340.559 c 0 -12.208 -9.933 -22.141 -22.142 -22.141 c -12.208 0 -22.141 9.932 -22.141 22.141 c 0 12.208 9.932 22.141 22.141 22.141 C 335.409 362.7 345.342 352.768 345.342 340.559 z M 316.323 340.559 c 0 -3.792 3.085 -6.878 6.878 -6.878 c 3.793 0 6.879 3.085 6.879 6.878 c 0 3.792 -3.085 6.878 -6.879 6.878 C 319.409 347.438 316.323 344.352 316.323 340.559 z" style="stroke: none; stroke-width: 1; stroke-dasharray: none; stroke-linecap: butt; stroke-linejoin: miter; stroke-miterlimit: 10; fill: rgb(0,0,0); fill-rule: nonzero; opacity: 1;" transform=" matrix(1 0 0 1 0 0) " stroke-linecap="round" />
  <path d="M 394.335 340.559 c 0 -12.208 -9.932 -22.141 -22.141 -22.141 c -12.208 0 -22.142 9.932 -22.142 22.141 c 0 12.208 9.933 22.141 22.142 22.141 C 384.403 362.7 394.335 352.768 394.335 340.559 z M 365.317 340.559 c 0 -3.792 3.085 -6.878 6.879 -6.878 c 3.792 0 6.878 3.085 6.878 6.878 c 0 3.792 -3.085 6.878 -6.878 6.878 C 368.402 347.438 365.317 344.352 365.317 340.559 z" style="stroke: none; stroke-width: 1; stroke-dasharray: none; stroke-linecap: butt; stroke-linejoin: miter; stroke-miterlimit: 10; fill: rgb(0,0,0); fill-rule: nonzero; opacity: 1;" transform=" matrix(1 0 0 1 0 0) " stroke-linecap="round" />
  <path d="M 81.69 24.112 c 13.241 -5.871 27.365 -8.848 41.976 -8.848 c 57.161 0 103.666 46.503 103.666 103.665 c 0 18.273 -4.822 36.24 -13.944 51.956 c -1.371 2.361 -1.376 5.274 -0.014 7.64 c 1.362 2.366 3.884 3.823 6.614 3.823 h 54.48 c 2.73 0 5.252 -1.458 6.613 -3.823 c 1.362 -2.366 1.357 -5.279 -0.013 -7.64 c -9.122 -15.717 -13.944 -33.684 -13.944 -51.956 c 0 -23.884 7.893 -46.325 22.825 -64.899 c 2.641 -3.286 2.118 -8.088 -1.166 -10.729 c -3.286 -2.642 -8.089 -2.119 -10.73 1.166 c -16.89 21.01 -26.191 47.455 -26.191 74.463 c 0 16.642 3.489 33.065 10.167 48.156 h -29.6 c 6.678 -15.091 10.167 -31.514 10.167 -48.156 C 242.595 53.35 189.245 0 123.666 0 c -16.756 0 -32.961 3.418 -48.164 10.159 c -3.853 1.708 -5.591 6.216 -3.883 10.07 C 73.328 24.082 77.833 25.821 81.69 24.112 z" style="stroke: none; stroke-width: 1; stroke-dasharray: none; stroke-linecap: butt; stroke-linejoin: miter; stroke-miterlimit: 10; fill: rgb(0,0,0); fill-rule: nonzero; opacity: 1;" transform=" matrix(1 0 0 1 0 0) " stroke-linecap="round" />
  <path d="M 209.647 470.402 h -42.559 c -4.216 0 -7.632 3.417 -7.632 7.632 s 3.416 7.632 7.632 7.632 h 42.559 c 4.216 0 7.632 -3.417 7.632 -7.632 S 213.863 470.402 209.647 470.402 z" style="stroke: none; stroke-width: 1; stroke-dasharray: none; stroke-linecap: butt; stroke-linejoin: miter; stroke-miterlimit: 10; fill: rgb(0,0,0); fill-rule: nonzero; opacity: 1;" transform=" matrix(1 0 0 1 0 0) " stroke-linecap="round" />
</g>
  <g transform="translate(248.23 110.76) scale(1.81 1.59)">
   <text font-family="Amerika Sans" font-size="40" font-weight="normal" style="stroke: none; stroke-width: 1; stroke-dasharray: none; stroke-linecap: butt; stroke-linejoin: miter; stroke-miterlimit: 10; fill: #000000; fill-rule: nonzero; opacity: 1;" ><tspan x="-48.8" y="8.98" style="stroke: none; stroke-width: 0; stroke-dasharray: none; stroke-linecap: butt; stroke-linejoin: miter; stroke-miterlimit: 4; fill: #000000; fill-rule: ; opacity: 1;">U</tspan><tspan x="-22.24" y="8.98" style="stroke: none; stroke-width: 0; stroke-dasharray: none; stroke-linecap: butt; stroke-linejoin: miter; stroke-miterlimit: 4; fill: #000000; fill-rule: ; opacity: 1;">r</tspan><tspan x="-6.48" y="8.98" style="stroke: none; stroke-width: 0; stroke-dasharray: none; stroke-linecap: butt; stroke-linejoin: miter; stroke-miterlimit: 4; fill: #000000; fill-rule: ; opacity: 1;">J</tspan><tspan x="1.72" y="8.98" style="stroke: none; stroke-width: 0; stroke-dasharray: none; stroke-linecap: butt; stroke-linejoin: miter; stroke-miterlimit: 4; fill: #000000; fill-rule: ; opacity: 1;">o</tspan><tspan x="25.52" y="8.98" style="stroke: none; stroke-width: 0; stroke-dasharray: none; stroke-linecap: butt; stroke-linejoin: miter; stroke-miterlimit: 4; fill: #000000; fill-rule: ; opacity: 1;">y</tspan></text>
 </g>
<g style="stroke: none; stroke-width: 1; stroke-dasharray: none; stroke-linecap: butt; stroke-linejoin: miter; stroke-miterlimit: 10; fill: none; fill-rule: nonzero; opacity: 1;" transform="translate(479.19000000000005 10) rotate(90.19) scale(1.63 1.7)" >
  <path d="M 72 62.6 L 41.2 4.6 c -1 -1.8 -2.9 -3 -4.9 -3 c -2 0 -3.9 1.1 -4.9 3 L 0.7 62.6 c -0.9 1.8 -0.9 3.9 0.1 5.6 c 1 1.7 2.8 2.8 4.8 2.8 h 61.5 c 2 0 3.8 -1.1 4.8 -2.8 C 72.9 66.5 72.9 64.3 72 62.6 z" style="stroke: none; stroke-width: 1; stroke-dasharray: none; stroke-linecap: butt; stroke-linejoin: miter; stroke-miterlimit: 10; fill: #f296e3; fill-rule: nonzero; opacity: 1;" transform=" matrix(1 0 0 1 0 0) " stroke-linecap="round" />
</g>
</svg>